<svg width="200" height="200" xmlns="http://www.w3.org/2000/svg" preserveAspectRatio="xMinYMid"><g><title>background</title><rect fill="none" id="canvas_background" height="202" width="202" y="-1" x="-1"></rect></g><g><title>Layer 1</title><path stroke="#673ab8" id="svg_19" fill="#673ab8" d="m100,6.87844l83.36915,46.56078l0,93.12156l-83.36915,46.56078l-83.36914,-46.56078l0,-93.12156l83.36914,-46.56078z"></path><g id="svg_34"><g stroke="null" id="svg_5"><circle stroke="null" id="svg_1" r="56.999668" cy="99.999997" cx="99.333339" class="st0"></circle><path stroke="null" id="svg_2" d="m59.433574,60.100231l79.799535,0l0,79.799535l-79.799535,0l0,-79.799535z" class="st1"></path><path stroke="null" id="svg_3" d="m139.233109,60.100231l-39.899768,79.799535l-39.899768,-79.799535l79.799535,0z" class="st2"></path><path stroke="null" id="svg_4" d="m42.333671,43.000329l113.999336,0l0,113.999336l-113.999336,0l0,-113.999336z" class="st3"></path></g><ellipse ry="1.999985" rx="1.999985" id="svg_25" cy="93.333385" cx="99.333336" stroke-width="null" stroke="null" fill="#673ab8"></ellipse></g><g stroke="null" id="svg_36"><ellipse stroke="#673ab8" transform="matrix(0.17321515449627276,0.17321515449627273,-0.17321515449627273,0.17321515449627276,63.46362017579341,27.139604895916065) " ry="20.957719" rx="75.190925" id="svg_32" cy="89.457308" cx="296.539126" fill-opacity="null" stroke-width="5" fill="none"></ellipse><ellipse stroke="#673ab8" transform="matrix(0.17321515449627276,-0.17321515449627273,0.17321515449627273,0.17321515449627276,28.182048694186207,62.16614021567621) " ry="20.957719" rx="75.190925" id="svg_35" cy="297.275314" cx="113.492909" fill-opacity="null" stroke-width="5" fill="none"></ellipse></g></g></svg>